<svg preserveAspectRatio="xMidYMid meet" data-bbox="341 0 1701 634" xmlns="http://www.w3.org/2000/svg" viewBox="341 0 1701 634" height="634" width="1701" data-type="color" role="presentation" aria-hidden="true" aria-label="">
    <g>
        <path fill="#A0E633" d="M588 326c0-42.811-3.195-85.203-9.401-124.755s-15.303-75.49-26.771-105.762-25.083-54.285-40.067-70.668C496.778 8.432 480.718 0 464.5 0s-32.278 8.432-47.262 24.815c-14.983 16.383-28.598 40.396-40.066 70.668s-20.565 66.21-26.771 105.762C344.194 240.797 341 283.189 341 326z" data-color="1"></path>
        <path fill="#A0E633" d="M588 308c0 42.811-3.195 85.203-9.401 124.755s-15.303 75.49-26.771 105.762-25.083 54.285-40.067 70.668C496.778 625.568 480.718 634 464.5 634s-32.278-8.432-47.262-24.815c-14.983-16.383-28.598-40.396-40.066-70.668s-20.565-66.21-26.771-105.762C344.194 393.203 341 350.811 341 308z" data-color="1"></path>
        <path fill="#272320" d="M496.466 410.118H407V228.941h89.466V216h68.427v12.941h89.245v181.177h-89.245V436h-68.427zm7.086-47.618v-70.406h-28.124V362.5zm54.034-70.406V362.5h28.124v-70.406z" data-color="2"></path>
        <path 
            fill="#272320" 
            d="M670.535 228.941h199.083v63.44H738.963v54.6h130.655v63.44H670.535V228.941z"
            data-color="2"
        ></path>
        <path fill="#272320" d="M1104.69 409.676h-68.42v-88.258l-81.054 88.258h-68.427V228.5h68.427v88.259l81.054-88.259h68.42z" data-color="2"></path>
        <path fill="#272320" d="M1238.84 291.44v14.3h124.87V410h-182.04V228h182.04v63.44zm0 54.6h74.58v-14.3h-74.58z" data-color="2"></path>
        <path fill="#272320" d="m1532.08 228 61.04 182h-66.41l-4.94-16.38h-68.35l-4.94 16.38h-66.41l61.04-182zm-28.37 103.22-11.82-39.78h-8.59l-11.82 39.78z" data-color="2"></path>
        <path fill="#272320" d="M1681.17 410h-69.85V228h69.85l.21 57.98h72.64l.22-57.98h69.85v182h-69.85l-.22-60.58h-72.64z" data-color="2"></path>
        <path fill="#272320" d="M1953.02 369.44h-44.48V410h-66.41V228h66.41v78h13.32l39.55-78h65.55l-39.55 78h15.9L2042 410h-73.93z" data-color="2"></path>
        <path fill="#A0E633" d="M419.297 455c35.011-102.433 36.192-162.099 0-273L381 198.091V455z" data-color="1"></path>
    </g>
</svg>