<svg id="wave" style="transform:scale(-1, 1) translate(-1440, 0); transition: 0.3s" viewBox="0 0 1440 100" version="1.1" xmlns="http://www.w3.org/2000/svg">
  <defs>
    <linearGradient id="sw-gradient-0" x1="0" x2="0" y1="1" y2="0">
      <stop stop-color="#ffd7ef" offset="0%"></stop>
      <stop stop-color="#ff9ecb" offset="100%"></stop>
    </linearGradient>
  </defs>
  <path style="transform:translate(0, 0px); opacity:1" fill="url(#sw-gradient-0)" d="M0,70L80,73.3C160,77,320,83,480,83.3C640,83,800,77,960,61.7C1120,47,1280,23,1440,20C1600,17,1760,33,1920,48.3C2080,63,2240,77,2400,73.3C2560,70,2720,50,2880,46.7C3040,43,3200,57,3360,56.7C3520,57,3680,43,3840,31.7C4000,20,4160,10,4320,16.7C4480,23,4640,47,4800,50C4960,53,5120,37,5280,26.7C5440,17,5600,13,5760,15C5920,17,6080,23,6240,33.3C6400,43,6560,57,6720,60C6880,63,7040,57,7200,56.7C7360,57,7520,63,7680,56.7C7840,50,8000,30,8160,18.3C8320,7,8480,3,8640,11.7C8800,20,8960,40,9120,46.7C9280,53,9440,47,9600,48.3C9760,50,9920,60,10080,66.7C10240,73,10400,77,10560,71.7C10720,67,10880,53,11040,40C11200,27,11360,13,11440,6.7L11520,0L11520,100L11440,100C11360,100,11200,100,11040,100C10880,100,10720,100,10560,100C10400,100,10240,100,10080,100C9920,100,9760,100,9600,100C9440,100,9280,100,9120,100C8960,100,8800,100,8640,100C8480,100,8320,100,8160,100C8000,100,7840,100,7680,100C7520,100,7360,100,7200,100C7040,100,6880,100,6720,100C6560,100,6400,100,6240,100C6080,100,5920,100,5760,100C5600,100,5440,100,5280,100C5120,100,4960,100,4800,100C4640,100,4480,100,4320,100C4160,100,4000,100,3840,100C3680,100,3520,100,3360,100C3200,100,3040,100,2880,100C2720,100,2560,100,2400,100C2240,100,2080,100,1920,100C1760,100,1600,100,1440,100C1280,100,1120,100,960,100C800,100,640,100,480,100C320,100,160,100,80,100L0,100Z"></path>
</svg>
